<svg xmlns="http://www.w3.org/2000/svg" viewBox="0 0 1200 900" role="img" aria-labelledby="title desc">
  <title id="title">Portfolio Website</title>
  <desc id="desc">Dark futuristic portfolio hero with centered typography and illustration matching the screenshot more closely.</desc>
  <defs>
    <linearGradient id="bg" x1="0" y1="0" x2="1" y2="1">
      <stop offset="0%" stop-color="#000000"/>
      <stop offset="55%" stop-color="#000000"/>
      <stop offset="100%" stop-color="#090112"/>
    </linearGradient>
    <linearGradient id="cyan" x1="0" y1="0" x2="1" y2="1">
      <stop offset="0%" stop-color="#22d3ee"/>
      <stop offset="100%" stop-color="#06b6d4"/>
    </linearGradient>
    <filter id="glow" x="-30%" y="-30%" width="160%" height="160%">
      <feGaussianBlur stdDeviation="34"/>
    </filter>
  </defs>
  <rect width="1200" height="900" rx="48" fill="url(#bg)"/>
  <circle cx="214" cy="246" r="190" fill="#0f766e" opacity="0.18" filter="url(#glow)"/>
  <circle cx="976" cy="246" r="210" fill="#7c3aed" opacity="0.14" filter="url(#glow)"/>
  <rect x="0" y="0" width="1200" height="72" fill="#000000" opacity="0.9"/>
  <rect x="0" y="72" width="1200" height="1" fill="#1f2937" opacity="0.85"/>
  <text x="28" y="46" fill="url(#cyan)" font-family="Arial, Helvetica, sans-serif" font-size="30" font-weight="800">Manish.dev</text>
  <text x="828" y="46" fill="#d1d5db" font-family="Arial, Helvetica, sans-serif" font-size="20">Home</text>
  <text x="912" y="46" fill="#d1d5db" font-family="Arial, Helvetica, sans-serif" font-size="20">About</text>
  <text x="996" y="46" fill="#d1d5db" font-family="Arial, Helvetica, sans-serif" font-size="20">Skills</text>
  <text x="1080" y="46" fill="#d1d5db" font-family="Arial, Helvetica, sans-serif" font-size="20">Projects</text>

  <text x="236" y="334" fill="#ffffff" font-family="Arial, Helvetica, sans-serif" font-size="76" font-weight="800">Hi, I'm</text>
  <text x="474" y="334" fill="url(#cyan)" font-family="Arial, Helvetica, sans-serif" font-size="76" font-weight="800">Manish Kumar</text>
  <text x="326" y="402" fill="#9ca3af" font-family="Arial, Helvetica, sans-serif" font-size="28">Full Stack Developer | Tech Enthusiast | React Developer</text>

  <rect x="440" y="454" width="192" height="58" rx="18" fill="url(#cyan)"/>
  <rect x="656" y="454" width="174" height="58" rx="18" fill="none" stroke="#22d3ee" stroke-width="2"/>
  <text x="474" y="492" fill="#000000" font-family="Arial, Helvetica, sans-serif" font-size="20" font-weight="700">View Projects</text>
  <text x="695" y="492" fill="#22d3ee" font-family="Arial, Helvetica, sans-serif" font-size="20" font-weight="700">Contact Me</text>

  <circle cx="995" cy="384" r="170" fill="#dbeafe"/>
  <rect x="1084" y="214" width="68" height="68" rx="16" fill="#0ea5e9" opacity="0.94"/>
  <rect x="1110" y="230" width="14" height="36" rx="7" fill="#ffffff"/>
  <rect x="1097" y="246" width="42" height="12" rx="6" fill="#ffffff" opacity="0.8"/>
  <rect x="1054" y="296" width="120" height="120" rx="18" fill="#7dd3fc" opacity="0.82"/>
  <circle cx="1074" cy="320" r="16" fill="#ffffff" opacity="0.9"/>
  <circle cx="1110" cy="320" r="16" fill="#ffffff" opacity="0.54"/>
  <path d="M998 250c24-30 61-20 74 4 9 18 9 47-12 67-16 16-43 23-65 12-20-10-31-29-29-48 2-12 11-25 32-35z" fill="#ef9f6b"/>
  <path d="M986 294c20 18 36 50 33 79" fill="none" stroke="#ef9f6b" stroke-width="18" stroke-linecap="round"/>
  <path d="M954 406c22-28 44-34 64-23 17 10 26 28 28 52" fill="none" stroke="#ef9f6b" stroke-width="18" stroke-linecap="round"/>
  <rect x="940" y="390" width="118" height="176" rx="52" fill="#a78bfa"/>
  <rect x="968" y="470" width="58" height="170" rx="28" fill="#7c3aed"/>
  <rect x="916" y="548" width="66" height="88" rx="24" fill="#111827"/>
  <rect x="1008" y="548" width="66" height="88" rx="24" fill="#111827"/>
  <rect x="956" y="480" width="168" height="24" rx="12" fill="#8b5cf6" opacity="0.84"/>
  <text x="982" y="498" fill="#ffffff" font-family="Arial, Helvetica, sans-serif" font-size="18" font-weight="700">DESIGN</text>

  <rect x="806" y="332" width="72" height="52" rx="12" fill="#ec4899"/>
  <text x="824" y="366" fill="#ffffff" font-family="Arial, Helvetica, sans-serif" font-size="30" font-weight="700">×</text>
  <rect x="776" y="432" width="88" height="52" rx="12" fill="#0ea5e9" opacity="0.9"/>
  <text x="794" y="466" fill="#ffffff" font-family="Arial, Helvetica, sans-serif" font-size="22" font-weight="700">{ }</text>
  <rect x="846" y="560" width="112" height="90" rx="10" fill="#60a5fa" opacity="0.88"/>
  <rect x="866" y="586" width="74" height="6" rx="3" fill="#ffffff"/>
  <rect x="866" y="602" width="86" height="6" rx="3" fill="#ffffff" opacity="0.84"/>
  <rect x="866" y="618" width="64" height="6" rx="3" fill="#ffffff" opacity="0.7"/>
</svg>
